<svg version="1.1" id="Layer_1" xmlns="http://www.w3.org/2000/svg" xmlns:xlink="http://www.w3.org/1999/xlink" x="0px" y="0px"
	 width="100%" viewBox="0 0 500 500" enable-background="new 0 0 500 500" xml:space="preserve">
<path fill="#000000" opacity="1.000000" stroke="none" 
	d="
M271.000000,501.000000 
	C180.666687,501.000000 90.833374,501.000000 1.000048,501.000000 
	C1.000032,334.333405 1.000032,167.666794 1.000016,1.000138 
	C167.666565,1.000092 334.333130,1.000092 500.999756,1.000046 
	C500.999847,167.666519 500.999847,334.333038 500.999939,500.999786 
	C424.500000,501.000000 348.000000,501.000000 271.000000,501.000000 
M232.906662,217.501465 
	C232.904129,225.828262 232.756744,234.158615 232.962158,242.480286 
	C233.060104,246.448227 235.332779,249.169937 239.516281,249.195465 
	C243.854477,249.221924 244.218750,245.989151 244.162338,242.608627 
	C244.099594,238.848450 244.147949,235.086426 244.147949,230.221603 
	C246.235992,231.627701 247.621414,232.344864 248.743484,233.354675 
	C252.950790,237.141037 257.066498,241.029007 261.226868,244.867722 
	C267.714783,250.854050 267.984406,250.855042 274.440277,244.956146 
	C275.478821,246.226044 276.396240,247.606216 277.560425,248.730972 
	C288.026764,258.842865 298.056702,258.522888 307.441559,248.696106 
	C310.320038,245.682068 310.292267,240.061859 312.248596,235.945557 
	C313.888153,232.495773 312.497803,229.897919 310.028503,228.917313 
	C305.985443,227.311752 301.496124,226.415573 297.140015,226.160934 
	C294.317169,225.995926 292.799225,230.424484 294.543701,233.187393 
	C295.479828,234.669968 297.270233,235.602417 298.263885,237.062912 
	C298.982788,238.119568 299.414368,240.751129 299.312683,240.786621 
	C296.053345,241.925003 292.530579,243.960724 289.436218,243.459824 
	C286.282013,242.949249 283.132874,239.975662 283.990448,235.740387 
	C285.112976,230.196762 286.615021,224.727707 288.031342,219.246613 
	C289.122437,215.024094 292.187866,213.868347 296.221130,213.881134 
	C300.209717,213.893768 303.294647,214.665619 304.734589,219.057449 
	C305.899841,222.611420 308.472809,225.693237 312.524231,223.574570 
	C316.121765,221.693268 316.374420,217.789169 314.852997,214.146027 
	C311.147766,205.273346 304.171234,201.527954 292.658813,201.984528 
	C284.266144,202.317383 279.184143,207.317413 276.048492,216.638657 
	C273.649628,223.769592 272.500641,231.320984 270.813324,238.609268 
	C265.197357,233.380386 259.160889,227.759995 252.817871,221.854156 
	C253.847748,220.956528 254.926880,220.040329 255.979401,219.094498 
	C260.987823,214.593658 266.032990,210.132401 270.976379,205.561127 
	C274.006836,202.758789 273.446045,199.138519 270.618042,197.367386 
	C268.490784,196.035110 264.175201,195.760361 262.223663,197.076218 
	C257.747284,200.094528 254.160446,204.416428 250.127777,208.116806 
	C248.654541,209.468643 246.941513,210.559189 244.094131,212.707169 
	C244.094131,207.794998 244.030716,204.384995 244.110458,200.978333 
	C244.206528,196.873962 241.603058,195.256317 238.184494,195.156799 
	C234.550186,195.051025 232.916962,197.447128 232.927750,201.014862 
	C232.943359,206.177444 232.916534,211.340149 232.906662,217.501465 
M220.990891,244.646393 
	C221.331421,242.917709 221.781754,241.202438 221.994705,239.458176 
	C223.413620,227.836029 224.752060,216.204025 226.183685,204.583481 
	C226.644974,200.839279 223.961029,197.007629 220.228729,196.706711 
	C216.261139,196.386795 214.582840,198.752792 214.210266,202.401001 
	C213.871796,205.715240 213.536728,209.031311 213.106735,212.334412 
	C212.235657,219.025848 211.301376,225.709076 210.265884,233.332489 
	C208.327774,230.925888 207.079712,229.401520 205.858810,227.855713 
	C200.906235,221.585175 196.055679,215.230865 190.974457,209.066544 
	C188.501801,206.066833 185.248718,205.900223 182.178024,208.191498 
	C178.793167,210.717209 179.877579,213.195358 182.237930,216.056335 
	C187.955154,222.986160 193.351456,230.180099 198.910461,237.241333 
	C202.924881,242.340591 206.887466,247.486481 211.067749,252.447632 
	C214.965393,257.073303 218.994537,254.717606 220.798813,249.846725 
	C221.286041,248.531311 220.938950,246.906830 220.990891,244.646393 
z"/>
<path fill="#F8F9FE" opacity="1.000000" stroke="none" 
	d="
M232.907227,217.002136 
	C232.916534,211.340149 232.943359,206.177444 232.927750,201.014862 
	C232.916962,197.447128 234.550186,195.051025 238.184494,195.156799 
	C241.603058,195.256317 244.206528,196.873962 244.110458,200.978333 
	C244.030716,204.384995 244.094131,207.794998 244.094131,212.707169 
	C246.941513,210.559189 248.654541,209.468643 250.127777,208.116806 
	C254.160446,204.416428 257.747284,200.094528 262.223663,197.076218 
	C264.175201,195.760361 268.490784,196.035110 270.618042,197.367386 
	C273.446045,199.138519 274.006836,202.758789 270.976379,205.561127 
	C266.032990,210.132401 260.987823,214.593658 255.979401,219.094498 
	C254.926880,220.040329 253.847748,220.956528 252.817871,221.854156 
	C259.160889,227.759995 265.197357,233.380386 270.813324,238.609268 
	C272.500641,231.320984 273.649628,223.769592 276.048492,216.638657 
	C279.184143,207.317413 284.266144,202.317383 292.658813,201.984528 
	C304.171234,201.527954 311.147766,205.273346 314.852997,214.146027 
	C316.374420,217.789169 316.121765,221.693268 312.524231,223.574570 
	C308.472809,225.693237 305.899841,222.611420 304.734589,219.057449 
	C303.294647,214.665619 300.209717,213.893768 296.221130,213.881134 
	C292.187866,213.868347 289.122437,215.024094 288.031342,219.246613 
	C286.615021,224.727707 285.112976,230.196762 283.990448,235.740387 
	C283.132874,239.975662 286.282013,242.949249 289.436218,243.459824 
	C292.530579,243.960724 296.053345,241.925003 299.312683,240.786621 
	C299.414368,240.751129 298.982788,238.119568 298.263885,237.062912 
	C297.270233,235.602417 295.479828,234.669968 294.543701,233.187393 
	C292.799225,230.424484 294.317169,225.995926 297.140015,226.160934 
	C301.496124,226.415573 305.985443,227.311752 310.028503,228.917313 
	C312.497803,229.897919 313.888153,232.495773 312.248596,235.945557 
	C310.292267,240.061859 310.320038,245.682068 307.441559,248.696106 
	C298.056702,258.522888 288.026764,258.842865 277.560425,248.730972 
	C276.396240,247.606216 275.478821,246.226044 274.440277,244.956146 
	C267.984406,250.855042 267.714783,250.854050 261.226868,244.867722 
	C257.066498,241.029007 252.950790,237.141037 248.743484,233.354675 
	C247.621414,232.344864 246.235992,231.627701 244.147949,230.221603 
	C244.147949,235.086426 244.099594,238.848450 244.162338,242.608627 
	C244.218750,245.989151 243.854477,249.221924 239.516281,249.195465 
	C235.332779,249.169937 233.060104,246.448227 232.962158,242.480286 
	C232.756744,234.158615 232.904129,225.828262 232.907227,217.002136 
z"/>
<path fill="#F8F9FE" opacity="1.000000" stroke="none" 
	d="
M220.982849,245.035309 
	C220.938950,246.906830 221.286041,248.531311 220.798813,249.846725 
	C218.994537,254.717606 214.965393,257.073303 211.067749,252.447632 
	C206.887466,247.486481 202.924881,242.340591 198.910461,237.241333 
	C193.351456,230.180099 187.955154,222.986160 182.237930,216.056335 
	C179.877579,213.195358 178.793167,210.717209 182.178024,208.191498 
	C185.248718,205.900223 188.501801,206.066833 190.974457,209.066544 
	C196.055679,215.230865 200.906235,221.585175 205.858810,227.855713 
	C207.079712,229.401520 208.327774,230.925888 210.265884,233.332489 
	C211.301376,225.709076 212.235657,219.025848 213.106735,212.334412 
	C213.536728,209.031311 213.871796,205.715240 214.210266,202.401001 
	C214.582840,198.752792 216.261139,196.386795 220.228729,196.706711 
	C223.961029,197.007629 226.644974,200.839279 226.183685,204.583481 
	C224.752060,216.204025 223.413620,227.836029 221.994705,239.458176 
	C221.781754,241.202438 221.331421,242.917709 220.982849,245.035309 
z"/>
</svg>